<svg width="27" height="26" viewBox="0 0 27 26" fill="none" xmlns="http://www.w3.org/2000/svg">
<path d="M27 12.5C27 19.0239 20.9554 24.3125 13.5 24.3125C12.1629 24.3143 10.8314 24.1407 9.53944 23.7961C8.55394 24.2956 6.291 25.2541 2.484 25.8785C2.1465 25.9325 1.89 25.5815 2.02331 25.2676C2.62069 23.8569 3.16069 21.977 3.32269 20.2625C1.2555 18.1869 0 15.47 0 12.5C0 5.97612 6.04462 0.6875 13.5 0.6875C20.9554 0.6875 27 5.97612 27 12.5ZM8.4375 12.5C8.4375 12.0524 8.25971 11.6232 7.94324 11.3068C7.62677 10.9903 7.19755 10.8125 6.75 10.8125C6.30245 10.8125 5.87322 10.9903 5.55676 11.3068C5.24029 11.6232 5.0625 12.0524 5.0625 12.5C5.0625 12.9476 5.24029 13.3768 5.55676 13.6932C5.87322 14.0097 6.30245 14.1875 6.75 14.1875C7.19755 14.1875 7.62677 14.0097 7.94324 13.6932C8.25971 13.3768 8.4375 12.9476 8.4375 12.5ZM15.1875 12.5C15.1875 12.0524 15.0097 11.6232 14.6932 11.3068C14.3768 10.9903 13.9476 10.8125 13.5 10.8125C13.0524 10.8125 12.6232 10.9903 12.3068 11.3068C11.9903 11.6232 11.8125 12.0524 11.8125 12.5C11.8125 12.9476 11.9903 13.3768 12.3068 13.6932C12.6232 14.0097 13.0524 14.1875 13.5 14.1875C13.9476 14.1875 14.3768 14.0097 14.6932 13.6932C15.0097 13.3768 15.1875 12.9476 15.1875 12.5ZM20.25 14.1875C20.6976 14.1875 21.1268 14.0097 21.4432 13.6932C21.7597 13.3768 21.9375 12.9476 21.9375 12.5C21.9375 12.0524 21.7597 11.6232 21.4432 11.3068C21.1268 10.9903 20.6976 10.8125 20.25 10.8125C19.8024 10.8125 19.3732 10.9903 19.0568 11.3068C18.7403 11.6232 18.5625 12.0524 18.5625 12.5C18.5625 12.9476 18.7403 13.3768 19.0568 13.6932C19.3732 14.0097 19.8024 14.1875 20.25 14.1875Z" fill="white"/>
</svg>
