<svg width="23" height="17" viewBox="0 0 23 17" fill="none" xmlns="http://www.w3.org/2000/svg">
<path d="M10.3349 0.990609C10.4779 1.05947 10.5985 1.16725 10.683 1.30157C10.7675 1.43589 10.8124 1.59131 10.8125 1.74998V15.25C10.8123 15.4088 10.7673 15.5642 10.6826 15.6986C10.598 15.8329 10.4772 15.9406 10.3341 16.0094C10.1909 16.0781 10.0313 16.1051 9.87357 16.0871C9.71582 16.0692 9.56631 16.0072 9.44225 15.9081L5.45469 12.7187H1.53125C1.30747 12.7187 1.09286 12.6298 0.934629 12.4716C0.776395 12.3134 0.6875 12.0988 0.6875 11.875V5.12498C0.6875 4.90121 0.776395 4.6866 0.934629 4.52836C1.09286 4.37013 1.30747 4.28123 1.53125 4.28123H5.45469L9.44225 1.09186C9.5664 0.992613 9.71606 0.930454 9.874 0.912541C10.0319 0.894628 10.1917 0.92169 10.3349 0.990609ZM22.3786 4.52761C22.4572 4.60599 22.5195 4.69909 22.5621 4.8016C22.6046 4.90411 22.6265 5.014 22.6265 5.12498C22.6265 5.23597 22.6046 5.34586 22.5621 5.44837C22.5195 5.55087 22.4572 5.64398 22.3786 5.72236L19.5993 8.49998L22.3786 11.2776C22.5371 11.436 22.6261 11.6509 22.6261 11.875C22.6261 12.099 22.5371 12.3139 22.3786 12.4724C22.2202 12.6308 22.0053 12.7198 21.7812 12.7198C21.5572 12.7198 21.3423 12.6308 21.1839 12.4724L18.4062 9.69305L15.6286 12.4724C15.4702 12.6308 15.2553 12.7198 15.0312 12.7198C14.8072 12.7198 14.5923 12.6308 14.4339 12.4724C14.2754 12.3139 14.1864 12.099 14.1864 11.875C14.1864 11.6509 14.2754 11.436 14.4339 11.2776L17.2132 8.49998L14.4339 5.72236C14.3554 5.64391 14.2932 5.55078 14.2507 5.44828C14.2083 5.34578 14.1864 5.23593 14.1864 5.12498C14.1864 5.01404 14.2083 4.90418 14.2507 4.80169C14.2932 4.69919 14.3554 4.60606 14.4339 4.52761C14.5923 4.36917 14.8072 4.28017 15.0312 4.28017C15.1422 4.28017 15.252 4.30202 15.3545 4.34448C15.457 4.38693 15.5502 4.44916 15.6286 4.52761L18.4062 7.30692L21.1839 4.52761C21.2623 4.44903 21.3554 4.38669 21.4579 4.34416C21.5604 4.30162 21.6703 4.27973 21.7812 4.27973C21.8922 4.27973 22.0021 4.30162 22.1046 4.34416C22.2071 4.38669 22.3002 4.44903 22.3786 4.52761Z" fill="white"/>
</svg>
