<svg width="25" height="24" viewBox="0 0 25 24" fill="none" xmlns="http://www.w3.org/2000/svg">
<path d="M23.7634 0.682125C23.884 0.80284 23.9652 0.957296 23.9963 1.12511C24.0273 1.29292 24.0067 1.46619 23.9372 1.62206L14.391 23.1006C14.3243 23.2508 14.2152 23.3782 14.0771 23.4673C13.9389 23.5564 13.7778 23.6031 13.6134 23.6019C13.4491 23.6006 13.2887 23.5514 13.1519 23.4602C13.0152 23.3691 12.908 23.24 12.8436 23.0888L9.3994 15.0461L1.35509 11.6003C1.20444 11.5355 1.07594 11.4282 0.985298 11.2915C0.894661 11.1548 0.845819 10.9947 0.844745 10.8307C0.84367 10.6667 0.890411 10.5059 0.97925 10.3681C1.06809 10.2302 1.19517 10.1213 1.34497 10.0545L22.8235 0.508312C22.9791 0.439205 23.1521 0.418823 23.3195 0.449846C23.487 0.480869 23.6411 0.561844 23.7617 0.682125H23.7634Z" fill="white"/>
</svg>
