<svg width="29" height="29" viewBox="0 0 29 29" fill="none" xmlns="http://www.w3.org/2000/svg">
<path d="M24.8294 19.0476V9.52381C24.829 9.10628 24.7196 8.6962 24.512 8.33472C24.3045 7.97323 24.0062 7.67305 23.6471 7.46428L15.3706 2.70238C15.0111 2.49341 14.6033 2.38339 14.1883 2.38339C13.7732 2.38339 13.3654 2.49341 13.0059 2.70238L4.72941 7.46428C4.37029 7.67305 4.072 7.97323 3.86447 8.33472C3.65695 8.6962 3.54748 9.10628 3.54706 9.52381V19.0476C3.54748 19.4651 3.65695 19.8752 3.86447 20.2367C4.072 20.5982 4.37029 20.8984 4.72941 21.1071L13.0059 25.869C13.3654 26.078 13.7732 26.188 14.1883 26.188C14.6033 26.188 15.0111 26.078 15.3706 25.869L23.6471 21.1071C24.0062 20.8984 24.3045 20.5982 24.512 20.2367C24.7196 19.8752 24.829 19.4651 24.8294 19.0476Z" stroke="#04BFBF" stroke-width="2" stroke-linecap="round" stroke-linejoin="round"/>
<path d="M8.86768 5.0119L14.1883 8.10714L19.5089 5.0119" stroke="#04BFBF" stroke-width="2" stroke-linecap="round" stroke-linejoin="round"/>
<path d="M8.86765 23.5595V17.381L3.54706 14.2857" stroke="#04BFBF" stroke-width="2" stroke-linecap="round" stroke-linejoin="round"/>
<path d="M24.8294 14.2857L19.5089 17.381V23.5595" stroke="#04BFBF" stroke-width="2" stroke-linecap="round" stroke-linejoin="round"/>
<path d="M3.86627 8.28572L14.1882 14.2976L24.5102 8.28572" stroke="#04BFBF" stroke-width="2" stroke-linecap="round" stroke-linejoin="round"/>
<path d="M14.1882 26.2857V14.2857" stroke="#04BFBF" stroke-width="2" stroke-linecap="round" stroke-linejoin="round"/>
</svg>
