<svg width="30" height="34" viewBox="0 0 30 34" fill="none" xmlns="http://www.w3.org/2000/svg">
<g filter="url(#filter0_d_10_922)">
<path d="M24.1941 25V22.6191C24.1941 21.3561 23.6924 20.1449 22.7994 19.2519C21.9064 18.3588 20.6952 17.8571 19.4322 17.8571H9.90842C8.64548 17.8571 7.43427 18.3588 6.54124 19.2519C5.64821 20.1449 5.14651 21.3561 5.14651 22.6191V25" stroke="#04BFBF" stroke-width="2" stroke-linecap="round" stroke-linejoin="round"/>
<path d="M14.6703 13.0952C17.3002 13.0952 19.4322 10.9633 19.4322 8.33333C19.4322 5.7034 17.3002 3.57143 14.6703 3.57143C12.0404 3.57143 9.90842 5.7034 9.90842 8.33333C9.90842 10.9633 12.0404 13.0952 14.6703 13.0952Z" stroke="#04BFBF" stroke-width="2" stroke-linecap="round" stroke-linejoin="round"/>
</g>
<defs>
<filter id="filter0_d_10_922" x="-3.61539" y="0" width="36.5714" height="36.5714" filterUnits="userSpaceOnUse" color-interpolation-filters="sRGB">
<feFlood flood-opacity="0" result="BackgroundImageFix"/>
<feColorMatrix in="SourceAlpha" type="matrix" values="0 0 0 0 0 0 0 0 0 0 0 0 0 0 0 0 0 0 127 0" result="hardAlpha"/>
<feOffset dy="4"/>
<feGaussianBlur stdDeviation="2"/>
<feComposite in2="hardAlpha" operator="out"/>
<feColorMatrix type="matrix" values="0 0 0 0 0 0 0 0 0 0 0 0 0 0 0 0 0 0 0.25 0"/>
<feBlend mode="normal" in2="BackgroundImageFix" result="effect1_dropShadow_10_922"/>
<feBlend mode="normal" in="SourceGraphic" in2="effect1_dropShadow_10_922" result="shape"/>
</filter>
</defs>
</svg>
