
<svg width="18" height="15" viewBox="0 0 18 15" fill="none" xmlns="http://www.w3.org/2000/svg">
<path d="M15.9001 1.20311C16.0067 1.09431 16.134 1.00788 16.2744 0.948868C16.4149 0.88986 16.5657 0.859467 16.718 0.859467C16.8704 0.859467 17.0212 0.88986 17.1616 0.948868C17.3021 1.00788 17.4294 1.09431 17.536 1.20311C17.9829 1.65468 17.9891 2.38436 17.5516 2.84374L8.31256 13.7656C8.20766 13.8808 8.08037 13.9734 7.93846 14.0377C7.79656 14.102 7.64303 14.1367 7.48726 14.1396C7.33149 14.1425 7.17677 14.1136 7.03255 14.0547C6.88833 13.9958 6.75765 13.908 6.6485 13.7969L1.02662 8.09999C0.809806 7.87887 0.688354 7.58154 0.688354 7.27186C0.688354 6.96218 0.809806 6.66485 1.02662 6.44374C1.13326 6.33494 1.26053 6.2485 1.40098 6.18949C1.54143 6.13049 1.69225 6.10009 1.84459 6.10009C1.99694 6.10009 2.14775 6.13049 2.2882 6.18949C2.42866 6.2485 2.55593 6.33494 2.66256 6.44374L7.43131 11.2766L15.8688 1.23749C15.8785 1.22541 15.889 1.21393 15.9001 1.20311Z" fill="white"/>
</svg>
