<svg width="28" height="13" viewBox="0 0 28 13" fill="none" xmlns="http://www.w3.org/2000/svg">
<g filter="url(#filter0_d_14_974)">
<path d="M9.50421 2.5C9.50421 3.88071 8.37231 5 6.97605 5C5.57978 5 4.44788 3.88071 4.44788 2.5C4.44788 1.11929 5.57978 0 6.97605 0C8.37231 0 9.50421 1.11929 9.50421 2.5Z" fill="#04BFBF"/>
<path d="M16.5831 2.5C16.5831 3.88071 15.4512 5 14.0549 5C12.6586 5 11.5267 3.88071 11.5267 2.5C11.5267 1.11929 12.6586 0 14.0549 0C15.4512 0 16.5831 1.11929 16.5831 2.5Z" fill="#04BFBF"/>
<path d="M23.662 2.5C23.662 3.88071 22.5301 5 21.1338 5C19.7375 5 18.6056 3.88071 18.6056 2.5C18.6056 1.11929 19.7375 0 21.1338 0C22.5301 0 23.662 1.11929 23.662 2.5Z" fill="#04BFBF"/>
</g>
<defs>
<filter id="filter0_d_14_974" x="0.447876" y="0" width="27.2141" height="13" filterUnits="userSpaceOnUse" color-interpolation-filters="sRGB">
<feFlood flood-opacity="0" result="BackgroundImageFix"/>
<feColorMatrix in="SourceAlpha" type="matrix" values="0 0 0 0 0 0 0 0 0 0 0 0 0 0 0 0 0 0 127 0" result="hardAlpha"/>
<feOffset dy="4"/>
<feGaussianBlur stdDeviation="2"/>
<feComposite in2="hardAlpha" operator="out"/>
<feColorMatrix type="matrix" values="0 0 0 0 0 0 0 0 0 0 0 0 0 0 0 0 0 0 0.25 0"/>
<feBlend mode="normal" in2="BackgroundImageFix" result="effect1_dropShadow_14_974"/>
<feBlend mode="normal" in="SourceGraphic" in2="effect1_dropShadow_14_974" result="shape"/>
</filter>
</defs>
</svg>
