<svg width="27" height="27" viewBox="0 0 27 27" fill="none" xmlns="http://www.w3.org/2000/svg">
<path fill-rule="evenodd" clip-rule="evenodd" d="M9.5625 3H17.4375C21.0619 3 24 5.93813 24 9.5625V17.4375C24 21.0619 21.0619 24 17.4375 24H9.5625C5.93813 24 3 21.0619 3 17.4375V9.5625C3 5.93813 5.93813 3 9.5625 3ZM13.5 19.4062C16.7619 19.4062 19.4062 16.7619 19.4062 13.5C19.4062 10.2381 16.7619 7.59375 13.5 7.59375C10.2381 7.59375 7.59375 10.2381 7.59375 13.5C7.59375 16.7619 10.2381 19.4062 13.5 19.4062Z" fill="#04BFBF"/>
<path d="M17.7656 13.5C17.7656 15.8558 15.8558 17.7656 13.5 17.7656C11.1442 17.7656 9.23438 15.8558 9.23438 13.5C9.23438 11.1442 11.1442 9.23438 13.5 9.23438C15.8558 9.23438 17.7656 11.1442 17.7656 13.5Z" fill="#04BFBF"/>
</svg>
