<svg width="32" height="32" viewBox="0 0 32 32" fill="none" xmlns="http://www.w3.org/2000/svg">
<g clip-path="url(#clip0_21_263)">
<path d="M12 5.33331H6.66668C5.9303 5.33331 5.33334 5.93027 5.33334 6.66665V12C5.33334 12.7364 5.9303 13.3333 6.66668 13.3333H12C12.7364 13.3333 13.3333 12.7364 13.3333 12V6.66665C13.3333 5.93027 12.7364 5.33331 12 5.33331Z" stroke="#04BFBF" stroke-width="2" stroke-linecap="round" stroke-linejoin="round"/>
<path d="M9.33334 22.6667V22.68" stroke="#04BFBF" stroke-width="2" stroke-linecap="round" stroke-linejoin="round"/>
<path d="M25.3333 5.33331H20C19.2636 5.33331 18.6667 5.93027 18.6667 6.66665V12C18.6667 12.7364 19.2636 13.3333 20 13.3333H25.3333C26.0697 13.3333 26.6667 12.7364 26.6667 12V6.66665C26.6667 5.93027 26.0697 5.33331 25.3333 5.33331Z" stroke="#04BFBF" stroke-width="2" stroke-linecap="round" stroke-linejoin="round"/>
<path d="M9.33334 9.33331V9.34665" stroke="#04BFBF" stroke-width="2" stroke-linecap="round" stroke-linejoin="round"/>
<path d="M12 18.6667H6.66668C5.9303 18.6667 5.33334 19.2636 5.33334 20V25.3334C5.33334 26.0697 5.9303 26.6667 6.66668 26.6667H12C12.7364 26.6667 13.3333 26.0697 13.3333 25.3334V20C13.3333 19.2636 12.7364 18.6667 12 18.6667Z" stroke="#04BFBF" stroke-width="2" stroke-linecap="round" stroke-linejoin="round"/>
<path d="M22.6667 9.33331V9.34665" stroke="#04BFBF" stroke-width="2" stroke-linecap="round" stroke-linejoin="round"/>
<path d="M18.6667 18.6667H22.6667" stroke="#04BFBF" stroke-width="2" stroke-linecap="round" stroke-linejoin="round"/>
<path d="M26.6667 18.6667V18.68" stroke="#04BFBF" stroke-width="2" stroke-linecap="round" stroke-linejoin="round"/>
<path d="M18.6667 18.6667V22.6667" stroke="#04BFBF" stroke-width="2" stroke-linecap="round" stroke-linejoin="round"/>
<path d="M18.6667 26.6667H22.6667" stroke="#04BFBF" stroke-width="2" stroke-linecap="round" stroke-linejoin="round"/>
<path d="M22.6667 22.6667H26.6667" stroke="#04BFBF" stroke-width="2" stroke-linecap="round" stroke-linejoin="round"/>
<path d="M26.6667 22.6667V26.6667" stroke="#04BFBF" stroke-width="2" stroke-linecap="round" stroke-linejoin="round"/>
</g>
<defs>
<clipPath id="clip0_21_263">
<rect width="32" height="32" fill="white"/>
</clipPath>
</defs>
</svg>
