<svg width="26" height="17" viewBox="0 0 26 17" fill="none" xmlns="http://www.w3.org/2000/svg">
<g clip-path="url(#clip0_14_959)">
<path d="M22.2192 0.328325C22.2192 0.328325 19.2579 -0.0265503 12.8981 -0.0265503C6.74462 -0.0265503 3.64724 0.328325 3.64724 0.328325C2.85613 0.328607 2.09753 0.628175 1.53823 1.16116C0.978938 1.69414 0.664747 2.4169 0.664747 3.17051V13.8316C0.664601 14.2049 0.741629 14.5745 0.891434 14.9194C1.04124 15.2643 1.26089 15.5777 1.53784 15.8417C1.81479 16.1057 2.14362 16.3152 2.50555 16.4581C2.86748 16.6011 3.25543 16.6747 3.64724 16.6749C3.64724 16.6749 6.52713 17.0276 12.8981 17.0276C19.2658 17.0276 22.2192 16.6749 22.2192 16.6749C22.6112 16.6752 22.9994 16.6018 23.3616 16.459C23.7238 16.3162 24.0529 16.1068 24.33 15.8427C24.6072 15.5786 24.8269 15.265 24.9767 14.92C25.1264 14.5749 25.2033 14.205 25.2029 13.8316V3.16839C25.2029 2.79525 25.1257 2.42576 24.9757 2.08105C24.8257 1.73634 24.6059 1.42316 24.3288 1.15941C24.0518 0.895656 23.7228 0.686503 23.3609 0.543902C22.9989 0.4013 22.611 0.328046 22.2192 0.328325ZM9.65573 12.7234V4.28189L17.6128 8.50001L9.65573 12.7234Z" fill="#04BFBF"/>
</g>
<defs>
<clipPath id="clip0_14_959">
<rect width="25.2817" height="17" fill="white" transform="translate(0.292957)"/>
</clipPath>
</defs>
</svg>
