<svg width="22" height="19" viewBox="0 0 22 19" fill="none" xmlns="http://www.w3.org/2000/svg">
<g clip-path="url(#clip0_21_181)">
<path d="M13.85 12.9154V17.1671C13.85 17.6783 13.4806 18.0965 12.9728 18.0965H0.923331C0.415499 18.0965 0 17.6783 0 17.1671V1.83288C0 1.32174 0.415499 0.903534 0.923331 0.903534H12.9728C13.4806 0.903534 13.85 1.32174 13.85 1.83288V6.08465C13.85 6.59579 13.4345 7.014 12.9266 7.014C12.4188 7.014 12.0033 6.59579 12.0033 6.08465V2.76223H1.84666V16.2378H12.0033V12.9154C12.0033 12.4042 12.4188 11.986 12.9266 11.986C13.4345 11.986 13.85 12.4042 13.85 12.9154ZM20.9596 8.80299L17.3586 5.13207C16.9893 4.76033 16.4122 4.76033 16.0429 5.13207C15.6735 5.50381 15.6735 6.08465 16.0429 6.45639L18.0973 8.54742L6.9019 8.57065C6.39407 8.57065 5.97857 8.98886 5.97857 9.5C5.97857 10.0111 6.39407 10.4293 6.9019 10.4293L18.0973 10.4061L16.0429 12.4971C15.6735 12.8689 15.6966 13.4497 16.0429 13.8215C16.2275 14.0073 16.4584 14.1003 16.6892 14.1003C16.92 14.1003 17.174 14.0073 17.3355 13.8215L20.9596 10.1505C21.329 9.75557 21.329 9.17473 20.9596 8.80299Z" fill="#04BFBF"/>
</g>
<defs>
<clipPath id="clip0_21_181">
<rect width="21.2366" height="19" fill="white"/>
</clipPath>
</defs>
</svg>
