<svg width="224" height="224" viewBox="0 0 224 224" fill="none" xmlns="http://www.w3.org/2000/svg">
<g clip-path="url(#clip0_21_527)">
<path d="M84 37.3333H46.6666C41.512 37.3333 37.3333 41.512 37.3333 46.6666V84C37.3333 89.1546 41.512 93.3333 46.6666 93.3333H84C89.1546 93.3333 93.3333 89.1546 93.3333 84V46.6666C93.3333 41.512 89.1546 37.3333 84 37.3333Z" stroke="white" stroke-width="2" stroke-linecap="round" stroke-linejoin="round"/>
<path d="M65.3333 158.667V158.76" stroke="white" stroke-width="2" stroke-linecap="round" stroke-linejoin="round"/>
<path d="M177.333 37.3333H140C134.845 37.3333 130.667 41.512 130.667 46.6666V84C130.667 89.1546 134.845 93.3333 140 93.3333H177.333C182.488 93.3333 186.667 89.1546 186.667 84V46.6666C186.667 41.512 182.488 37.3333 177.333 37.3333Z" stroke="white" stroke-width="2" stroke-linecap="round" stroke-linejoin="round"/>
<path d="M65.3333 65.3333V65.4267" stroke="white" stroke-width="2" stroke-linecap="round" stroke-linejoin="round"/>
<path d="M84 130.667H46.6666C41.512 130.667 37.3333 134.845 37.3333 140V177.333C37.3333 182.488 41.512 186.667 46.6666 186.667H84C89.1546 186.667 93.3333 182.488 93.3333 177.333V140C93.3333 134.845 89.1546 130.667 84 130.667Z" stroke="white" stroke-width="2" stroke-linecap="round" stroke-linejoin="round"/>
<path d="M158.667 65.3333V65.4267" stroke="white" stroke-width="2" stroke-linecap="round" stroke-linejoin="round"/>
<path d="M130.667 130.667H158.667" stroke="white" stroke-width="2" stroke-linecap="round" stroke-linejoin="round"/>
<path d="M186.667 130.667V130.76" stroke="white" stroke-width="2" stroke-linecap="round" stroke-linejoin="round"/>
<path d="M130.667 130.667V158.667" stroke="white" stroke-width="2" stroke-linecap="round" stroke-linejoin="round"/>
<path d="M130.667 186.667H158.667" stroke="white" stroke-width="2" stroke-linecap="round" stroke-linejoin="round"/>
<path d="M158.667 158.667H186.667" stroke="white" stroke-width="2" stroke-linecap="round" stroke-linejoin="round"/>
<path d="M186.667 158.667V186.667" stroke="white" stroke-width="2" stroke-linecap="round" stroke-linejoin="round"/>
</g>
<defs>
<clipPath id="clip0_21_527">
<rect width="224" height="224" fill="white"/>
</clipPath>
</defs>
</svg>
