<svg width="21" height="17" viewBox="0 0 21 17" fill="none" xmlns="http://www.w3.org/2000/svg">
<g clip-path="url(#clip0_14_963)">
<path d="M18.7686 0.225343C16.1337 1.33918 4.83555 6.11562 1.71387 7.41744C-0.379667 8.25129 0.845918 9.03312 0.845918 9.03312C0.845918 9.03312 2.63301 9.65845 4.16504 10.1275C5.69686 10.5966 6.51385 10.0755 6.51385 10.0755L13.7136 5.1244C16.2667 3.35244 15.654 4.81163 15.0411 5.43718C13.7136 6.79232 11.5179 8.92886 9.67964 10.6488C8.86265 11.3784 9.27104 12.0037 9.62867 12.3165C10.9562 13.4631 14.5818 15.8084 14.7858 15.9647C15.8645 16.7441 17.9863 17.866 18.3091 15.4956L19.5856 7.3134C19.9942 4.55131 20.4026 1.99752 20.4536 1.26793C20.6069 -0.504248 18.7686 0.225343 18.7686 0.225343Z" fill="#04BFBF"/>
</g>
<defs>
<clipPath id="clip0_14_963">
<rect width="20.2254" height="17" fill="white" transform="translate(0.36338)"/>
</clipPath>
</defs>
</svg>
