<svg width="48" height="48" viewBox="0 0 48 48" fill="none" xmlns="http://www.w3.org/2000/svg">
<circle cx="24" cy="24" r="24" fill="#04BFBF"/>
<circle cx="24" cy="24" r="15" fill="white"/>
<path d="M30.9 17.2031C31.0066 17.0943 31.1339 17.0079 31.2744 16.9489C31.4148 16.8899 31.5656 16.8595 31.718 16.8595C31.8703 16.8595 32.0211 16.8899 32.1616 16.9489C32.302 17.0079 32.4293 17.0943 32.5359 17.2031C32.9828 17.6547 32.9891 18.3844 32.5516 18.8437L23.3125 29.7656C23.2076 29.8808 23.0803 29.9734 22.9384 30.0377C22.7965 30.102 22.643 30.1367 22.4872 30.1396C22.3314 30.1425 22.1767 30.1136 22.0325 30.0547C21.8883 29.9958 21.7576 29.908 21.6484 29.7969L16.0266 24.1C15.8097 23.8789 15.6883 23.5815 15.6883 23.2719C15.6883 22.9622 15.8097 22.6649 16.0266 22.4437C16.1332 22.3349 16.2605 22.2485 16.4009 22.1895C16.5414 22.1305 16.6922 22.1001 16.8445 22.1001C16.9969 22.1001 17.1477 22.1305 17.2881 22.1895C17.4286 22.2485 17.5559 22.3349 17.6625 22.4437L22.4312 27.2766L30.8687 17.2375C30.8785 17.2254 30.8889 17.2139 30.9 17.2031Z" fill="#04BFBF"/>
</svg>
