<svg width="74" height="74" viewBox="0 0 74 74" fill="none" xmlns="http://www.w3.org/2000/svg">
<circle cx="37" cy="37" r="35.5" fill="white" stroke="#242424" stroke-width="3"/>
<path fill-rule="evenodd" clip-rule="evenodd" d="M24.5281 24.131C24.5281 24.1248 24.5281 24.1186 24.5281 24.1124C24.5281 17.2243 30.1119 11.6404 37 11.6404C43.888 11.6404 49.4719 17.2243 49.4719 24.1124L49.4719 50.3034C49.4719 57.1914 43.888 62.7753 37 62.7753C30.112 62.7753 24.5281 57.1914 24.5281 50.3034V24.131Z" fill="url(#paint0_linear_27_214)"/>
<path d="M26.191 51.5505V24.5281L37 34.4294V44.1245C30.647 44.1245 27.1469 49.0752 26.191 51.5505Z" fill="url(#paint1_linear_27_214)"/>
<path d="M47.809 51.5505V24.5281L37 34.4294V44.1245C43.353 44.1245 46.8531 49.0752 47.809 51.5505Z" fill="url(#paint2_linear_27_214)"/>
<circle cx="37" cy="24.1123" r="10.809" fill="white"/>
<defs>
<linearGradient id="paint0_linear_27_214" x1="37" y1="62.7753" x2="37" y2="11.6404" gradientUnits="userSpaceOnUse">
<stop stop-color="#F2C029"/>
<stop offset="1" stop-color="#04BFBF"/>
</linearGradient>
<linearGradient id="paint1_linear_27_214" x1="34.2487" y1="51.5505" x2="29.5895" y2="24.4169" gradientUnits="userSpaceOnUse">
<stop offset="0.225" stop-color="white" stop-opacity="0"/>
<stop offset="0.915" stop-color="white"/>
</linearGradient>
<linearGradient id="paint2_linear_27_214" x1="39.7513" y1="51.5505" x2="44.4105" y2="24.4169" gradientUnits="userSpaceOnUse">
<stop offset="0.225" stop-color="white" stop-opacity="0"/>
<stop offset="0.915" stop-color="white"/>
</linearGradient>
</defs>
</svg>
