<svg width="18" height="21" viewBox="0 0 18 21" fill="none" xmlns="http://www.w3.org/2000/svg">
<path fill-rule="evenodd" clip-rule="evenodd" d="M1.73077 6.09677V18.9677C1.73077 19.6452 2.14615 21 3.80769 21H14.5385C16.2 21 16.6154 19.6452 16.6154 18.9677V6.09677H1.73077ZM6.57692 17.4435V9.65323C6.57692 9.18557 6.18948 8.80645 5.71154 8.80645C5.2336 8.80645 4.84615 9.18557 4.84615 9.65323V17.4435C4.84615 17.9112 5.2336 18.2903 5.71154 18.2903C6.18948 18.2903 6.57692 17.9112 6.57692 17.4435ZM10.0385 17.4435V9.65323C10.0385 9.18557 9.65102 8.80645 9.17308 8.80645C8.69514 8.80645 8.30769 9.18557 8.30769 9.65323V17.4435C8.30769 17.9112 8.69514 18.2903 9.17308 18.2903C9.65102 18.2903 10.0385 17.9112 10.0385 17.4435ZM13.5 17.4435V9.65323C13.5 9.18557 13.1126 8.80645 12.6346 8.80645C12.1567 8.80645 11.7692 9.18557 11.7692 9.65323V17.4435C11.7692 17.9112 12.1567 18.2903 12.6346 18.2903C13.1126 18.2903 13.5 17.9112 13.5 17.4435Z" fill="#C91C1C"/>
<path d="M4.84615 3.3871V2.03226C4.84615 1.35484 5.26154 0 6.92308 0H11.0769C12.7385 0 13.1538 1.35484 13.1538 2.03226V3.3871H17.3077C17.69 3.3871 18 3.69039 18 4.06452C18 4.43864 17.69 4.74194 17.3077 4.74194H0.692308C0.309957 4.74194 0 4.43864 0 4.06452C0 3.69039 0.309957 3.3871 0.692308 3.3871H4.84615Z" fill="#C91C1C"/>
</svg>
